<?xml version="1.0" standalone="no"?><!DOCTYPE svg PUBLIC "-//W3C//DTD SVG 1.1//EN" "http://www.w3.org/Graphics/SVG/1.1/DTD/svg11.dtd"><svg t="1699011774137" class="icon" viewBox="0 0 1024 1024" version="1.1" xmlns="http://www.w3.org/2000/svg" p-id="4773" xmlns:xlink="http://www.w3.org/1999/xlink" width="200" height="200"><path d="M850.29 678.81L705.4 555.05 555.99 691.41l-72.37-56.13L341 756.98V801h509.29V678.81z" fill="#fffbaf" p-id="4774" data-spm-anchor-id="a313x.icontype_histories.0.i34.5b583a81hsGPUb" class="selected"></path><path d="M885 841H140.47V183.14H885z m-664.53-80H805V263.14H220.47z" fill="#333333" p-id="4775"></path><path d="M361 408m-56 0a56 56 0 1 0 112 0 56 56 0 1 0-112 0Z" fill="#333333" p-id="4776"></path><path d="M206.43 775.53l-51.93-60.86 212.78-181.56 74.57 59.95 197.01-179.79 237.1 198.35-51.33 61.36-183.49-153.49-195.99 178.87-76.35-61.38-162.37 138.55z" fill="#333333" p-id="4777"></path></svg>