<?xml version="1.0" standalone="no"?><!DOCTYPE svg PUBLIC "-//W3C//DTD SVG 1.1//EN" "http://www.w3.org/Graphics/SVG/1.1/DTD/svg11.dtd"><svg t="1699011714152" class="icon" viewBox="0 0 1024 1024" version="1.1" xmlns="http://www.w3.org/2000/svg" p-id="2381" xmlns:xlink="http://www.w3.org/1999/xlink" width="200" height="200"><path d="M542.08 536.23m-240.08 0a240.08 240.08 0 1 0 480.16 0 240.08 240.08 0 1 0-480.16 0Z" fill="#fffbaf" p-id="2382" data-spm-anchor-id="a313x.icontype_histories.0.i11.5b583a81hsGPUb" class="selected"></path><path d="M497.13 839.64a347.28 347.28 0 1 1 135.53-27.38 346 346 0 0 1-135.53 27.38z m0-616.33a268.17 268.17 0 1 0 189.62 78.54 266.4 266.4 0 0 0-189.62-78.54z" fill="#333333" p-id="2383"></path><path d="M694.95 745.872l56.569-56.568 113.759 113.76-56.569 56.568z" fill="#333333" p-id="2384"></path></svg>