<?xml version="1.0" standalone="no"?><!DOCTYPE svg PUBLIC "-//W3C//DTD SVG 1.1//EN" "http://www.w3.org/Graphics/SVG/1.1/DTD/svg11.dtd"><svg t="1699011759822" class="icon" viewBox="0 0 1024 1024" version="1.1" xmlns="http://www.w3.org/2000/svg" p-id="4167" xmlns:xlink="http://www.w3.org/1999/xlink" width="200" height="200"><path d="M619 518.45v1a105.5 105.5 0 0 1-211 0v-1H202l155.75 269.77h311.5L825 518.45z" fill="#fffbaf" p-id="4168" data-spm-anchor-id="a313x.icontype_histories.0.i28.5b583a81hsGPUb" class="selected"></path><path d="M707.4 856.78H315.84L120.05 517.67l195.79-339.11H707.4l195.79 339.11z m-345.4-80h299.2l149.61-259.11-149.59-259.11H362L212.43 517.67z" fill="#333333" p-id="4169"></path><path d="M511.62 663.53c-80.43 0-145.86-65.43-145.86-145.86s65.43-145.86 145.86-145.86 145.86 65.43 145.86 145.86-65.43 145.86-145.86 145.86z m0-211.72a65.86 65.86 0 1 0 65.86 65.86 65.94 65.94 0 0 0-65.86-65.86z" fill="#333333" p-id="4170"></path></svg>