<?xml version="1.0" standalone="no"?><!DOCTYPE svg PUBLIC "-//W3C//DTD SVG 1.1//EN" "http://www.w3.org/Graphics/SVG/1.1/DTD/svg11.dtd"><svg t="1702437998516" class="icon" viewBox="0 0 1024 1024" version="1.1" xmlns="http://www.w3.org/2000/svg" p-id="3375" xmlns:xlink="http://www.w3.org/1999/xlink" width="200" height="200"><path d="M376.6 633.44m-231.4 0a231.4 231.4 0 1 0 462.8 0 231.4 231.4 0 1 0-462.8 0Z" fill="#f9f28b" p-id="3376" data-spm-anchor-id="a313x.collections_detail.0.i1.700e3a81mYLWfR" class="selected"></path><path d="M858.5 871.51H173.09a35 35 0 0 1-35-35V236.93a35 35 0 0 1 35-35H508v70H208.09v529.58H823.5V582h70v254.51a35 35 0 0 1-35 35z" fill="#333333" p-id="3377"></path><path d="M502.227 541.227l304.586-304.586 49.498 49.498-304.587 304.586z" fill="#333333" p-id="3378"></path><path d="M893 503h-70V272H592v-70h266a35 35 0 0 1 35 35z" fill="#333333" p-id="3379"></path></svg>